<svg width="101" height="101" viewBox="0 0 101 101" fill="none" xmlns="http://www.w3.org/2000/svg">
<path d="M79.206 31.6696C79.206 24.2133 76.244 17.0624 70.9716 11.79C65.6992 6.51755 58.5483 3.55554 51.0919 3.55554C43.6356 3.55554 36.4847 6.51755 31.2123 11.79C25.9399 17.0624 22.9779 24.2133 22.9779 31.6696C22.9779 64.4693 8.9209 73.8406 8.9209 73.8406H93.263C93.263 73.8406 79.206 64.4693 79.206 31.6696Z" stroke="white" stroke-opacity="0.85" stroke-width="4.68567" stroke-linecap="round" stroke-linejoin="round"/>
<path d="M59.1988 92.5833C58.375 94.0034 57.1925 95.1822 55.7699 96.0016C54.3473 96.821 52.7343 97.2523 51.0925 97.2523C49.4508 97.2523 47.8378 96.821 46.4152 96.0016C44.9925 95.1822 43.8101 94.0034 42.9863 92.5833" stroke="white" stroke-opacity="0.85" stroke-width="4.68567" stroke-linecap="round" stroke-linejoin="round"/>
</svg>
