<svg width="36" height="37" viewBox="0 0 36 37" fill="none" xmlns="http://www.w3.org/2000/svg">
<g clip-path="url(#clip0_1392_2770)">
<path d="M31.5532 13.4172H16.3054C14.434 13.4172 12.917 14.9343 12.917 16.8057V32.0535C12.917 33.9249 14.434 35.442 16.3054 35.442H31.5532C33.4246 35.442 34.9417 33.9249 34.9417 32.0535V16.8057C34.9417 14.9343 33.4246 13.4172 31.5532 13.4172Z" stroke="#0B111D" stroke-width="2.31028" stroke-linecap="round" stroke-linejoin="round"/>
<path d="M6.14218 23.5826H4.44798C3.54932 23.5826 2.68746 23.2256 2.05201 22.5901C1.41656 21.9547 1.05957 21.0928 1.05957 20.1942V4.94628C1.05957 4.04761 1.41656 3.18576 2.05201 2.55031C2.68746 1.91485 3.54932 1.55786 4.44798 1.55786H19.6958C20.5945 1.55786 21.4563 1.91485 22.0918 2.55031C22.7272 3.18576 23.0842 4.04761 23.0842 4.94628V6.64049" stroke="#0B111D" stroke-width="2.31028" stroke-linecap="round" stroke-linejoin="round"/>
</g>
<defs>
<clipPath id="clip0_1392_2770">
<rect width="36" height="36" fill="white" transform="translate(0 0.5)"/>
</clipPath>
</defs>
</svg>
