<svg width="21" height="21" viewBox="0 0 21 21" fill="none" xmlns="http://www.w3.org/2000/svg">
<g clip-path="url(#clip0_1476_2)">
<path d="M10.2997 7.40268C9.73125 7.34654 9.15934 7.46747 8.66228 7.74892C8.16521 8.03037 7.76729 8.45858 7.523 8.97492C7.2787 9.49126 7.19998 10.0705 7.29759 10.6333C7.39521 11.1961 7.66441 11.715 8.06832 12.1189C8.47223 12.5228 8.99111 12.792 9.55392 12.8896C10.1167 12.9873 10.696 12.9085 11.2123 12.6642C11.7286 12.4199 12.1569 12.022 12.4383 11.5249C12.7198 11.0279 12.8407 10.456 12.7845 9.88753C12.7205 9.25029 12.4382 8.65477 11.9853 8.20191C11.5325 7.74904 10.9369 7.46668 10.2997 7.40268ZM16.9707 10.1598C16.9689 10.461 16.9468 10.7617 16.9045 11.0598L18.8616 12.5949C18.9468 12.6655 19.0043 12.7641 19.0237 12.8731C19.0431 12.9821 19.0232 13.0944 18.9677 13.1901L17.1162 16.3936C17.0599 16.4884 16.972 16.5603 16.868 16.5967C16.7639 16.633 16.6504 16.6315 16.5473 16.5923L14.6036 15.8096C14.4964 15.7669 14.3803 15.7515 14.2657 15.7647C14.1511 15.778 14.0415 15.8194 13.9469 15.8854C13.6502 16.0896 13.3385 16.2711 13.0144 16.4282C12.9125 16.4777 12.8244 16.5516 12.7578 16.6433C12.6912 16.7349 12.6482 16.8415 12.6326 16.9538L12.3413 19.0269C12.3221 19.1364 12.2656 19.2359 12.1812 19.3083C12.0969 19.3807 11.99 19.4215 11.8789 19.4239H8.17589C8.0666 19.422 7.96122 19.3829 7.8771 19.3131C7.79298 19.2433 7.73514 19.147 7.71312 19.0399L7.42221 16.9698C7.40587 16.8563 7.36176 16.7487 7.29379 16.6564C7.22582 16.5641 7.1361 16.49 7.0326 16.4408C6.70888 16.2845 6.39822 16.1025 6.1036 15.8966C6.00926 15.831 5.90009 15.7899 5.7859 15.7769C5.67171 15.764 5.5561 15.7797 5.44948 15.8226L3.50619 16.6048C3.40321 16.6441 3.28969 16.6457 3.18563 16.6094C3.08158 16.5731 2.99366 16.5013 2.93736 16.4066L1.08585 13.2031C1.03018 13.1074 1.01029 12.995 1.02971 12.886C1.04913 12.777 1.10661 12.6785 1.19191 12.6079L2.84602 11.3092C2.93664 11.2372 3.00786 11.1438 3.05322 11.0374C3.09858 10.9309 3.11664 10.8148 3.10576 10.6996C3.09018 10.5191 3.08065 10.339 3.08065 10.1585C3.08065 9.978 3.08974 9.80051 3.10576 9.62389C3.11545 9.5094 3.09651 9.3943 3.05064 9.28895C3.00476 9.18361 2.93341 9.09133 2.84299 9.02043L1.18974 7.72173C1.10583 7.65077 1.04956 7.55255 1.03081 7.44427C1.01205 7.33599 1.03199 7.22457 1.08715 7.12952L2.93866 3.92606C2.99489 3.83125 3.08278 3.75933 3.18684 3.72298C3.29091 3.68663 3.40446 3.68818 3.50749 3.72735L5.45121 4.51004C5.5584 4.55272 5.6745 4.56813 5.78912 4.55491C5.90373 4.54169 6.01327 4.50024 6.10793 4.43428C6.40457 4.23 6.71629 4.04853 7.04039 3.89142C7.14229 3.8419 7.23042 3.76805 7.29701 3.67639C7.3636 3.58474 7.4066 3.47809 7.42221 3.36588L7.71355 1.29272C7.73269 1.18323 7.78925 1.08379 7.87358 1.01138C7.95791 0.938977 8.06477 0.898105 8.17589 0.895752H11.8789C11.9882 0.897643 12.0936 0.936705 12.1777 1.0065C12.2618 1.0763 12.3197 1.17267 12.3417 1.27973L12.6326 3.34986C12.6489 3.46331 12.6931 3.57097 12.761 3.66326C12.829 3.75555 12.9187 3.82961 13.0222 3.87887C13.3459 4.03513 13.6566 4.2171 13.9512 4.42302C14.0455 4.48866 14.1547 4.52979 14.2689 4.54271C14.3831 4.55564 14.4987 4.53994 14.6053 4.49705L16.5486 3.7148C16.6516 3.67558 16.7651 3.67397 16.8692 3.71024C16.9732 3.74651 17.0612 3.81833 17.1174 3.91307L18.969 7.11653C19.0246 7.21224 19.0445 7.3246 19.0251 7.4336C19.0057 7.5426 18.9482 7.64118 18.8629 7.71177L17.2088 9.01047C17.1178 9.08217 17.0461 9.1755 17.0004 9.28196C16.9547 9.38841 16.9363 9.50462 16.9469 9.61999C16.9612 9.79922 16.9707 9.9793 16.9707 10.1598Z" stroke="white" stroke-opacity="0.85" stroke-width="0.89" stroke-linecap="round" stroke-linejoin="round"/>
</g>
<defs>
<clipPath id="clip0_1476_2">
<rect width="20" height="20" fill="white" transform="translate(0.0273438 0.159912)"/>
</clipPath>
</defs>
</svg>
