<svg width="340" height="111" viewBox="0 0 340 111" fill="none" xmlns="http://www.w3.org/2000/svg">
<path d="M129.017 2.80234L84.5741 108.663H55.5694L33.7097 24.1772C32.3772 18.976 31.2223 17.0691 27.1867 14.8771C20.6002 11.2978 9.7115 7.95278 0.130005 5.87485L0.783557 2.80234H47.4601C53.412 2.80234 58.7548 6.74911 60.1063 13.5911L71.6549 74.852L100.196 2.79601L129.017 2.80234ZM242.631 74.0982C242.745 46.1602 203.924 44.6144 204.197 32.1405C204.273 28.3331 207.903 24.3038 215.822 23.2712C219.762 22.7581 230.581 22.3589 242.878 28.0099L247.688 5.56445C241.095 3.16343 232.592 0.870117 222.034 0.870117C194.926 0.870117 175.839 15.2636 175.681 35.8718C175.509 51.1015 189.304 59.6034 199.698 64.6779C210.384 69.86 213.962 73.1922 213.924 77.8296C213.848 84.9313 205.396 88.0609 197.515 88.1876C183.72 88.4093 175.712 84.4752 169.329 81.504L164.361 104.697C170.769 107.636 182.591 110.19 194.875 110.323C223.677 110.323 242.529 96.1002 242.631 74.0982ZM314.219 108.663H339.588L317.455 2.80234H294.028C288.774 2.80234 284.326 5.86226 282.353 10.5693L241.203 108.663H269.992L275.715 92.8629H310.9L314.206 108.663H314.219ZM283.622 71.1587L298.064 31.3992L306.37 71.1587H283.622ZM168.206 2.80234L145.528 108.663H118.097L140.775 2.80234H168.206Z" fill="black"/>
</svg>
