<svg width="21" height="21" viewBox="0 0 21 21" fill="none" xmlns="http://www.w3.org/2000/svg">
<g clip-path="url(#clip0_743_22)">
<path d="M17.1965 5.18254H2.9108C1.72733 5.18254 0.767944 6.14193 0.767944 7.32539V15.8968C0.767944 17.0803 1.72733 18.0397 2.9108 18.0397H17.1965C18.38 18.0397 19.3394 17.0803 19.3394 15.8968V7.32539C19.3394 6.14193 18.38 5.18254 17.1965 5.18254Z" stroke="white" stroke-width="1.07143" stroke-linejoin="round"/>
<path d="M16.9894 5.18253V3.84324C16.9893 3.51476 16.9167 3.19035 16.7767 2.89316C16.6368 2.59598 16.433 2.33333 16.1799 2.12397C15.9268 1.9146 15.6306 1.76368 15.3125 1.68198C14.9943 1.60027 14.662 1.58979 14.3394 1.65128L2.58223 3.65797C2.07166 3.75527 1.61105 4.0277 1.27984 4.42826C0.948632 4.82882 0.767592 5.33241 0.767945 5.85217V8.03967" stroke="white" stroke-width="1.07143" stroke-linejoin="round"/>
<path d="M15.0537 13.0397C14.7711 13.0397 14.4949 12.9559 14.26 12.7989C14.0251 12.6419 13.842 12.4188 13.7339 12.1578C13.6257 11.8968 13.5975 11.6095 13.6526 11.3324C13.7077 11.0553 13.8438 10.8007 14.0435 10.601C14.2433 10.4012 14.4979 10.2651 14.775 10.21C15.0521 10.1549 15.3393 10.1832 15.6004 10.2913C15.8614 10.3994 16.0845 10.5825 16.2415 10.8174C16.3985 11.0524 16.4823 11.3286 16.4823 11.6111C16.4823 11.99 16.3318 12.3534 16.0638 12.6213C15.7959 12.8892 15.4326 13.0397 15.0537 13.0397Z" fill="white"/>
</g>
<defs>
<clipPath id="clip0_743_22">
<rect width="20" height="20" fill="#DBDCDE" transform="translate(0.0537109 0.137939)"/>
</clipPath>
</defs>
</svg>
